<svg width="21" height="20" viewBox="0 0 21 20" fill="none" xmlns="http://www.w3.org/2000/svg">
<path d="M10.4778 6.01832C9.74781 6.01832 8.61779 5.18832 7.42779 5.21832C5.85779 5.23832 4.41779 6.12831 3.60779 7.53831C1.97779 10.3683 3.18779 14.5483 4.77779 16.8483C5.55779 17.9683 6.47779 19.2283 7.69779 19.1883C8.86779 19.1383 9.30781 18.4283 10.7278 18.4283C12.1378 18.4283 12.5378 19.1883 13.7778 19.1583C15.0378 19.1383 15.8378 18.0183 16.6078 16.8883C17.4978 15.5883 17.8678 14.3283 17.8878 14.2583C17.8578 14.2483 15.4378 13.3183 15.4078 10.5183C15.3878 8.17831 17.3178 7.05832 17.4078 7.00832C16.3078 5.39832 14.6178 5.21832 14.0278 5.17832C12.4878 5.05832 11.1978 6.01832 10.4778 6.01832ZM13.0778 3.65832C13.7278 2.87832 14.1578 1.78832 14.0378 0.708313C13.1078 0.748313 11.9878 1.32832 11.3178 2.10832C10.7178 2.79832 10.1978 3.90832 10.3378 4.96832C11.3678 5.04832 12.4278 4.43832 13.0778 3.65832Z" fill="#0C0453"/>
</svg>
