<svg width="21" height="20" viewBox="0 0 21 20" fill="none" xmlns="http://www.w3.org/2000/svg">
<path d="M2.80305 6.25764C4.17426 3.53412 6.99239 1.66669 10.25 1.66669C12.4962 1.66669 14.3825 2.49248 15.8258 3.83715L13.4356 6.2273C12.572 5.40156 11.4734 4.98108 10.25 4.98108C8.07954 4.98108 6.24239 6.447 5.58715 8.41669C5.42044 8.91669 5.32574 9.45077 5.32574 10C5.32574 10.5493 5.42044 11.0834 5.58715 11.5834C6.24239 13.553 8.07954 15.0189 10.25 15.0189C11.3712 15.0189 12.3258 14.7235 13.072 14.2235C13.9545 13.6326 14.5417 12.75 14.7349 11.7084H10.25V8.48485H18.0984C18.197 9.03027 18.25 9.59852 18.25 10.1894C18.25 12.7273 17.3409 14.8636 15.7651 16.3144C14.3864 17.5872 12.5 18.3334 10.25 18.3334C6.99239 18.3334 4.17426 16.4659 2.80305 13.7424C2.23867 12.6174 1.91669 11.3447 1.91669 10C1.91669 8.65535 2.23867 7.38261 2.80305 6.25764Z" fill="#0C0453"/>
</svg>
